<?xml version="1.0" encoding="UTF-8" standalone="no"?>
<svg width="32px" height="29px" viewBox="0 0 32 29" version="1.1" xmlns="http://www.w3.org/2000/svg" xmlns:xlink="http://www.w3.org/1999/xlink">
    <!-- Generator: Sketch 41 (35326) - http://www.bohemiancoding.com/sketch -->
    <title>icon-sketch</title>
    <desc>Created with Sketch.</desc>
    <defs></defs>
    <g id="iampanagiotis" stroke="none" stroke-width="1" fill="none" fill-rule="evenodd" stroke-linejoin="bevel">
        <g id="desktop" transform="translate(-548.000000, -2528.000000)" stroke="#7E848C">
            <g id="flow" transform="translate(305.000000, 1124.000000)">
                <g id="mockups" transform="translate(81.000000, 1084.000000)">
                    <g id="description" transform="translate(61.000000, 31.000000)">
                        <g id="icons" transform="translate(0.000000, 290.000000)">
                            <g id="icon-sketch" transform="translate(102.333333, 0.000000)">
                                <polygon id="Shape" points="6.06350254 9.66099624 14.9697716 27.0931282 0 9.66099624"></polygon>
                                <polygon id="Shape" transform="translate(22.454617, 18.377062) scale(-1, 1) translate(-22.454617, -18.377062) " points="21.0332336 9.66099624 29.9395026 27.0931282 14.9697311 9.66099624"></polygon>
                                <polygon id="Shape" points="6.06350254 9.66099624 23.8760406 9.66099624 14.9697716 27.0931282"></polygon>
                                <polygon id="Shape" points="14.9697716 0 6.5322335 0.892005076 6.06350254 9.66098985"></polygon>
                                <polygon id="Shape" transform="translate(19.422860, 4.830495) scale(-1, 1) translate(-19.422860, -4.830495) " points="23.8759946 0 15.4384565 0.892005076 14.9697256 9.66098985"></polygon>
                                <polygon id="Shape" transform="translate(26.673386, 5.276497) scale(-1, 1) translate(-26.673386, -5.276497) " points="23.4072311 9.66098985 29.9395407 0.892005076 29.4707336 9.66098985"></polygon>
                                <polygon id="Shape" points="0 9.66098985 6.5322335 0.892005076 6.06350254 9.66098985"></polygon>
                                <polygon id="Shape" points="14.9697716 0 6.06350254 9.66098985 23.8760406 9.66098985"></polygon>
                            </g>
                        </g>
                    </g>
                </g>
            </g>
        </g>
    </g>
</svg>