<?xml version="1.0" encoding="UTF-8" standalone="no"?>
<svg width="20px" height="20px" viewBox="0 0 20 20" version="1.1" xmlns="http://www.w3.org/2000/svg" xmlns:xlink="http://www.w3.org/1999/xlink">
    <!-- Generator: Sketch 41.1 (35376) - http://www.bohemiancoding.com/sketch -->
    <title>icon-linkedin</title>
    <desc>Created with Sketch.</desc>
    <defs>
        <rect id="path-1" x="0" y="0" width="20" height="20" rx="3"></rect>
        <mask id="mask-2" maskContentUnits="userSpaceOnUse" maskUnits="objectBoundingBox" x="0" y="0" width="20" height="20" fill="white">
            <use xlink:href="#path-1"></use>
        </mask>
    </defs>
    <g id="iampanagiotis" stroke="none" stroke-width="1" fill="none" fill-rule="evenodd">
        <g id="desktop" transform="translate(-622.000000, -439.000000)">
            <g id="header" transform="translate(358.000000, 64.000000)">
                <g id="social" transform="translate(140.000000, 375.000000)">
                    <g id="icon-linkedin" transform="translate(124.000000, 0.000000)">
                        <use id="Rectangle-4" stroke="#474A4F" mask="url(#mask-2)" stroke-width="3.4" xlink:href="#path-1"></use>
                        <path d="M15.5,15.1074233 L13.1429693,15.1074233 L13.1429693,11.1785153 C13.1429693,10.3030692 12.8822984,9.87044968 12.0704497,9.87044968 C10.7513919,9.87044968 10.7859386,11.1785153 10.7859386,11.1785153 L10.7859386,15.1074233 L8.42890792,15.1074233 L8.42890792,8.03476089 L10.7859386,8.03476089 L10.7859386,9.21406138 C10.7859386,9.21406138 11.2248394,8.03476089 13.1429693,8.03476089 C14.619843,8.03476089 15.5,9.17872948 15.5,11.1785153 L15.5,15.1074233 Z M5.67851535,7.24960742 C5.02762313,7.24960742 4.5,6.7219843 4.5,6.07030692 C4.5,5.42019986 5.02762313,4.89257673 5.67851535,4.89257673 C6.32940757,4.89257673 6.85703069,5.42019986 6.85703069,6.07030692 C6.85703069,6.7219843 6.32940757,7.24960742 5.67851535,7.24960742 L5.67851535,7.24960742 Z M6.85703069,15.1074233 L4.5,15.1074233 L4.5,8.03476089 L6.85703069,8.03476089 L6.85703069,15.1074233 Z" id="icon-linkedin-copy" fill="#474A4F"></path>
                    </g>
                </g>
            </g>
        </g>
    </g>
</svg>