<?xml version="1.0" encoding="UTF-8" standalone="no"?>
<svg width="31px" height="28px" viewBox="0 0 31 28" version="1.1" xmlns="http://www.w3.org/2000/svg" xmlns:xlink="http://www.w3.org/1999/xlink">
    <!-- Generator: Sketch 39.1 (31720) - http://www.bohemiancoding.com/sketch -->
    <title>icon-sketch</title>
    <desc>Created with Sketch.</desc>
    <defs></defs>
    <g id="iampanagiotis" stroke="none" stroke-width="1" fill="none" fill-rule="evenodd">
        <g id="desktop" transform="translate(-142.000000, -868.000000)" fill="#7E848C">
            <g id="flow" transform="translate(42.000000, 527.000000)">
                <g id="wireframes">
                    <g id="description" transform="translate(52.000000, 51.000000)">
                        <g id="icons" transform="translate(0.000000, 290.000000)">
                            <path d="M74.0361111,2.31192661 L78.3333333,7.32110092 L63.1666667,28 L48,7.32110092 L52.2972222,2.31192661 L57.7319444,0 L68.6013889,0 L74.0361111,2.31192661 L74.0361111,2.31192661 Z M58.6166667,20.1137622 L54.5722222,12.6899087 L51.3872226,10.2752294 L58.6166667,20.1137622 L58.6166667,20.1137622 Z M70.4719448,12.8440367 L55.8108337,12.8440367 L63.1413893,26.2788999 L70.4719448,12.8440367 L70.4719448,12.8440367 Z M67.6661118,20.1137622 L71.7105563,12.6899087 L74.895556,10.2752294 L67.6661118,20.1137622 L67.6661118,20.1137622 Z M54.7997226,11.5853207 L49.2638889,7.37247628 L52.6258341,3.44220223 L57.4033345,5.77981651 L54.7997226,11.5853207 L54.7997226,11.5853207 Z M58.3386115,6.16513761 L55.8108337,11.8165138 L70.4719448,11.8165138 L67.944167,6.16513761 L58.3386115,6.16513761 L58.3386115,6.16513761 Z M71.483056,11.5853207 L77.0188877,7.37247628 L73.6569463,3.44220223 L68.879444,5.77981651 L71.483056,11.5853207 L71.483056,11.5853207 Z M67.944167,5.13761467 L58.3386115,5.13761467 L53.6875,2.82568807 L57.9088901,1.02752294 L68.3738885,1.02752294 L72.5952767,2.82568807 L67.944167,5.13761467 L67.944167,5.13761467 Z" id="icon-sketch"></path>
                        </g>
                    </g>
                </g>
            </g>
        </g>
    </g>
</svg>