<?xml version="1.0" encoding="UTF-8" standalone="no"?>
<svg width="20px" height="20px" viewBox="0 0 20 20" version="1.1" xmlns="http://www.w3.org/2000/svg" xmlns:xlink="http://www.w3.org/1999/xlink">
    <!-- Generator: Sketch 40.2 (33826) - http://www.bohemiancoding.com/sketch -->
    <title>icon-dribbble</title>
    <desc>Created with Sketch.</desc>
    <defs></defs>
    <g id="iampanagiotis" stroke="none" stroke-width="1" fill="none" fill-rule="evenodd">
        <g id="desktop" transform="translate(-837.000000, -55.000000)" fill="#474A4F">
            <g id="header" transform="translate(42.000000, 43.000000)">
                <g id="social" transform="translate(732.000000, 11.000000)">
                    <path d="M77.083,17.0115 C77.007,16.57 76.6115,14.447 75.651,11.8425 C77.926,11.4695 79.9275,12.0575 80.1765,12.1345 C79.861,14.155 78.708,15.904 77.083,17.0115 M73.03,18.2685 C71.3505,18.275 69.8005,17.709 68.565,16.7545 C68.6945,16.487 70.154,13.6425 74.2445,12.199 C74.2605,12.194 74.277,12.1885 74.2925,12.1835 C75.323,14.827 75.754,17.0445 75.8645,17.6805 C74.994,18.0555 74.036,18.2645 73.03,18.2685 M65.7365,11.04 C65.7365,10.9655 65.7375,10.8925 65.7395,10.818 C66.057,10.824 69.577,10.855 73.2,9.7555 C73.4095,10.162 73.61,10.573 73.794,10.985 C73.698,11.0125 73.6025,11.042 73.5085,11.072 C69.767,12.2975 67.787,15.6035 67.6235,15.8855 C66.458,14.6035 65.744,12.904 65.7365,11.04 M69.885,4.456 C70.0775,4.7175 71.383,6.5095 72.595,8.6425 C69.201,9.5575 66.2085,9.5565 65.884,9.5535 C66.3455,7.2995 67.857,5.4215 69.885,4.456 M72.9705,3.7535 C74.816,3.746 76.506,4.4315 77.793,5.5635 C77.663,5.75 76.5755,7.2225 73.9965,8.2 C72.7975,6.0205 71.471,4.2305 71.269,3.9625 C71.815,3.829 72.3845,3.7555 72.9705,3.7535 M78.604,6.399 C79.6205,7.6295 80.2395,9.201 80.2625,10.914 C80.023,10.864 77.6195,10.3865 75.2035,10.7 C75.1525,10.576 75.0995,10.452 75.046,10.326 C74.8935,9.9735 74.73,9.622 74.5595,9.277 C77.2405,8.1705 78.4515,6.607 78.604,6.399 M72.9655,2.5035 C68.2765,2.522 64.477,6.3495 64.496,11.034 C64.515,15.7195 68.3455,19.5155 73.0345,19.497 C77.7235,19.4785 81.523,15.651 81.504,10.9655 C81.485,6.281 77.6545,2.484 72.9655,2.5035 M73,21 C67.477,21 63,16.523 63,11 C63,5.4775 67.477,1 73,1 C78.523,1 83,5.4775 83,11 C83,16.523 78.523,21 73,21" id="icon-dribbble"></path>
                </g>
            </g>
        </g>
    </g>
</svg>