<?xml version="1.0" encoding="UTF-8" standalone="no"?>
<svg width="28px" height="28px" viewBox="0 0 28 28" version="1.1" xmlns="http://www.w3.org/2000/svg" xmlns:xlink="http://www.w3.org/1999/xlink">
    <!-- Generator: Sketch 41 (35326) - http://www.bohemiancoding.com/sketch -->
    <title>icon-pencil</title>
    <desc>Created with Sketch.</desc>
    <defs></defs>
    <g id="Page-1" stroke="none" stroke-width="1" fill="none" fill-rule="evenodd">
        <g id="Group" transform="translate(-215.000000, -1.000000)" fill="#7E848C">
            <path d="M238.545455,10.9183636 L233.081636,5.45454545 L236,2.53618182 L241.463818,8 L238.545455,10.9183636 Z M225.181818,24.282 L225.181818,22.6363636 L225.181182,22.6363636 C225.178636,22.2857273 224.896091,22.0031818 224.545455,22.0006364 L224.545455,22 L222,22 L222,19.4545455 L221.999364,19.4545455 C221.996818,19.1039091 221.714273,18.8207273 221.363636,18.8188182 L221.363636,18.8181818 L219.718,18.8181818 L232.181818,6.35436364 L237.645636,11.8181818 L225.181818,24.282 Z M223.909091,25.3383636 L216.562909,27.4370909 L218.661636,20.0909091 L220.727273,20.0909091 L220.727273,22.6039091 C220.726636,22.6166364 220.719636,22.6268182 220.719636,22.6401818 C220.719636,22.994 221.006,23.2803636 221.359818,23.2803636 C221.373182,23.2803636 221.383364,23.2733636 221.396091,23.2727273 L223.909091,23.2727273 L223.909091,25.3383636 Z M242.812273,7.55136364 L242.813545,7.55009091 L236.449909,1.18645455 L236.448636,1.18772727 C236.332818,1.07127273 236.173091,1 235.996182,1 C235.812909,1 235.65,1.07954545 235.533545,1.203 L217.741455,18.9950909 C217.66,19.0720909 217.609727,19.1726364 217.576,19.2820909 L217.569636,19.2801818 L215.024182,28.1892727 L215.034364,28.1918182 C215.018455,28.2459091 215,28.3 215,28.3598182 C215,28.7136364 215.286364,29 215.640182,29 C215.7,29 215.755364,28.9872727 215.809455,28.9713636 L215.810727,28.9751818 L224.719818,26.4297273 L224.717909,26.424 C224.827364,26.3902727 224.929182,26.3393636 225.005545,26.2579091 L242.796364,8.46709091 C242.920455,8.35063636 243,8.18772727 243,8.00381818 C243,7.82754545 242.928727,7.66718182 242.812273,7.55136364 L242.812273,7.55136364 Z" id="icon-pencil"></path>
        </g>
    </g>
</svg>