<?xml version="1.0" encoding="UTF-8" standalone="no"?>
<svg width="32px" height="29px" viewBox="0 0 32 29" version="1.1" xmlns="http://www.w3.org/2000/svg" xmlns:xlink="http://www.w3.org/1999/xlink">
    <!-- Generator: Sketch 41 (35326) - http://www.bohemiancoding.com/sketch -->
    <title>icon-sketch</title>
    <desc>Created with Sketch.</desc>
    <defs></defs>
    <g id="Page-1" stroke="none" stroke-width="1" fill="none" fill-rule="evenodd">
        <g id="Group" transform="translate(-83.000000, -1.000000)" fill="#7E848C">
            <g id="icon-sketch" transform="translate(83.000000, 0.500000)">
                <path d="M13.6155267,24.5841674 L2.08843373,11.1609962 L6.75748008,11.1609962 L13.6155267,24.5841674 Z M7.50875597,10.4335113 L7.06350254,10.1609962 L1,10.1609962 L0.62067232,10.9867423 L15.5904439,28.4188743 L16.415025,27.8656433 L7.50875597,10.4335113 Z" id="Shape"></path>
                <path d="M24.4307467,10.4335113 L15.5244776,27.8656433 L16.3490587,28.4188743 L31.3188303,10.9867423 L30.9395026,10.1609962 L24.8760001,10.1609962 L24.4307467,10.4335113 Z M29.8510689,11.1609962 L18.323976,24.5841674 L25.1820226,11.1609962 L29.8510689,11.1609962 Z" id="Shape"></path>
                <path d="M7.88043605,11.1609962 L24.0591071,11.1609962 L15.9697716,26.9941542 L7.88043605,11.1609962 Z M7.06350254,10.1609962 L6.61824911,10.8884811 L15.5245181,28.3206131 L15.9697716,28.7250366 L16.415025,28.3206131 L25.321294,10.8884811 L24.8760406,10.1609962 L7.06350254,10.1609962 Z" id="Shape"></path>
                <path d="M15.9172052,0.502770903 L7.47966712,1.39477598 L7.03294629,1.86531654 L6.56421532,10.6343013 L7.43112357,10.9998922 L16.3373926,1.33890231 L15.9172052,0.502770903 Z M7.63689447,9.30133276 L8.00876461,2.3444132 L14.7027292,1.63673634 L7.63689447,9.30133276 Z" id="Shape"></path>
                <path d="M23.9307325,2.3444132 L24.3026027,9.30133276 L17.2367679,1.63673634 L23.9307325,2.3444132 Z M16.022292,0.502770903 L15.6021046,1.33890231 L24.5083736,10.9998922 L25.3752818,10.6343013 L24.9065509,1.86531654 L24.45983,1.39477598 L16.022292,0.502770903 Z" id="Shape"></path>
                <path d="M31.3405138,10.3622916 L24.8082041,1.59330687 L23.9079441,1.91869794 L24.3767512,10.6876827 L24.8760382,11.1609898 L30.9395407,11.1609898 L31.3405138,10.3622916 Z M25.3500212,10.1609898 L24.9948638,3.51780953 L29.9435907,10.1609898 L25.3500212,10.1609898 Z" id="Shape"></path>
                <path d="M6.94461534,3.51780544 L6.58951537,10.1609898 L1.99594308,10.1609898 L6.94461534,3.51780544 Z M0.599025292,10.3622939 L1,11.1609898 L7.06350254,11.1609898 L7.56278975,10.6876784 L8.03152072,1.91869361 L7.13125879,1.5933091 L0.599025292,10.3622939 Z" id="Shape"></path>
                <path d="M15.6021505,0.661097687 L6.69588151,10.3220875 L7.06350254,11.1609898 L24.8760406,11.1609898 L25.2436616,10.3220875 L16.3373926,0.661097687 L15.6021505,0.661097687 Z M23.7350527,10.1609898 L8.20449046,10.1609898 L15.9697716,1.7376757 L23.7350527,10.1609898 Z" id="Shape"></path>
            </g>
        </g>
    </g>
</svg>