<?xml version="1.0" encoding="UTF-8" standalone="no"?>
<svg width="28px" height="28px" viewBox="0 0 28 28" version="1.1" xmlns="http://www.w3.org/2000/svg" xmlns:xlink="http://www.w3.org/1999/xlink">
    <!-- Generator: Sketch 39.1 (31720) - http://www.bohemiancoding.com/sketch -->
    <title>icon-pencil</title>
    <desc>Created with Sketch.</desc>
    <defs></defs>
    <g id="iampanagiotis" stroke="none" stroke-width="1" fill="none" fill-rule="evenodd">
        <g id="desktop" transform="translate(-94.000000, -868.000000)" fill="#7E848C">
            <g id="flow" transform="translate(42.000000, 527.000000)">
                <g id="wireframes">
                    <g id="description" transform="translate(52.000000, 51.000000)">
                        <g id="icons" transform="translate(0.000000, 290.000000)">
                            <path d="M23.5454545,9.91836364 L18.0816364,4.45454545 L21,1.53618182 L26.4638182,7 L23.5454545,9.91836364 Z M10.1818182,23.282 L10.1818182,21.6363636 L10.1811818,21.6363636 C10.1786364,21.2857273 9.89609091,21.0031818 9.54545455,21.0006364 L9.54545455,21 L7,21 L7,18.4545455 L6.99936364,18.4545455 C6.99681818,18.1039091 6.71427273,17.8207273 6.36363636,17.8188182 L6.36363636,17.8181818 L4.718,17.8181818 L17.1818182,5.35436364 L22.6456364,10.8181818 L10.1818182,23.282 Z M8.90909091,24.3383636 L1.56290909,26.4370909 L3.66163636,19.0909091 L5.72727273,19.0909091 L5.72727273,21.6039091 C5.72663636,21.6166364 5.71963636,21.6268182 5.71963636,21.6401818 C5.71963636,21.994 6.006,22.2803636 6.35981818,22.2803636 C6.37318182,22.2803636 6.38336364,22.2733636 6.39609091,22.2727273 L8.90909091,22.2727273 L8.90909091,24.3383636 Z M27.8122727,6.55136364 L27.8135455,6.55009091 L21.4499091,0.186454545 L21.4486364,0.187727273 C21.3328182,0.0712727273 21.1730909,0 20.9961818,0 C20.8129091,0 20.65,0.0795454545 20.5335455,0.203 L2.74145455,17.9950909 C2.66,18.0720909 2.60972727,18.1726364 2.576,18.2820909 L2.56963636,18.2801818 L0.0241818182,27.1892727 L0.0343636364,27.1918182 C0.0184545455,27.2459091 0,27.3 0,27.3598182 C0,27.7136364 0.286363636,28 0.640181818,28 C0.7,28 0.755363636,27.9872727 0.809454545,27.9713636 L0.810727273,27.9751818 L9.71981818,25.4297273 L9.71790909,25.424 C9.82736364,25.3902727 9.92918182,25.3393636 10.0055455,25.2579091 L27.7963636,7.46709091 C27.9204545,7.35063636 28,7.18772727 28,7.00381818 C28,6.82754545 27.9287273,6.66718182 27.8122727,6.55136364 L27.8122727,6.55136364 Z" id="icon-pencil"></path>
                        </g>
                    </g>
                </g>
            </g>
        </g>
    </g>
</svg>