<?xml version="1.0" encoding="UTF-8" standalone="no"?>
<svg width="21px" height="20px" viewBox="0 0 21 20" version="1.1" xmlns="http://www.w3.org/2000/svg" xmlns:xlink="http://www.w3.org/1999/xlink">
    <!-- Generator: Sketch 39.1 (31720) - http://www.bohemiancoding.com/sketch -->
    <title>icon-linkedin</title>
    <desc>Created with Sketch.</desc>
    <defs></defs>
    <g id="iampanagiotis" stroke="none" stroke-width="1" fill="none" fill-rule="evenodd">
        <g id="desktop" transform="translate(-960.000000, -55.000000)" fill="#474A4F">
            <g id="header" transform="translate(42.000000, 43.000000)">
                <g id="social" transform="translate(795.000000, 12.000000)">
                    <path d="M139.458024,15.005 L136.956357,15.005 L136.956357,10.835 C136.956357,9.90583333 136.679691,9.44666667 135.818024,9.44666667 C134.418024,9.44666667 134.454691,10.835 134.454691,10.835 L134.454691,15.005 L131.953024,15.005 L131.953024,7.49833333 L134.454691,7.49833333 L134.454691,8.75 C134.454691,8.75 134.920524,7.49833333 136.956357,7.49833333 C138.523857,7.49833333 139.458024,8.7125 139.458024,10.835 L139.458024,15.005 Z M129.033857,6.665 C128.343024,6.665 127.783024,6.105 127.783024,5.41333333 C127.783024,4.72333333 128.343024,4.16333333 129.033857,4.16333333 C129.724691,4.16333333 130.284691,4.72333333 130.284691,5.41333333 C130.284691,6.105 129.724691,6.665 129.033857,6.665 L129.033857,6.665 Z M130.284691,15.005 L127.783024,15.005 L127.783024,7.49833333 L130.284691,7.49833333 L130.284691,15.005 Z M140.287191,0 L126.953857,0 C125.113024,0 123.620524,1.4925 123.620524,3.33333333 L123.620524,16.6666667 C123.620524,18.5075 125.113024,20 126.953857,20 L140.287191,20 C142.128024,20 143.620524,18.5075 143.620524,16.6666667 L143.620524,3.33333333 C143.620524,1.4925 142.128024,0 140.287191,0 L140.287191,0 Z" id="icon-linkedin"></path>
                </g>
            </g>
        </g>
    </g>
</svg>