<?xml version="1.0" encoding="UTF-8" standalone="no"?>
<svg width="24px" height="20px" viewBox="0 0 24 20" version="1.1" xmlns="http://www.w3.org/2000/svg" xmlns:xlink="http://www.w3.org/1999/xlink">
    <!-- Generator: Sketch 41.1 (35376) - http://www.bohemiancoding.com/sketch -->
    <title>icon-twitter</title>
    <desc>Created with Sketch.</desc>
    <defs></defs>
    <g id="iampanagiotis" stroke="none" stroke-width="1" fill="none" fill-rule="evenodd" stroke-linejoin="round">
        <g id="desktop" transform="translate(-558.000000, -439.000000)" stroke="#474A4F" stroke-width="1.5">
            <g id="header" transform="translate(358.000000, 64.000000)">
                <g id="social" transform="translate(140.000000, 375.000000)">
                    <path d="M79.2061412,2.43668734 C78.3977796,1.55181036 77.2437487,1 75.9690938,1 C73.5197039,1 71.5339068,3.03620724 71.5339068,5.545009 C71.5339068,5.9014803 71.5726145,6.24804961 71.6482296,6.58021604 C67.9619924,6.39027806 64.6934387,4.58091618 62.505101,1.83356671 C62.1243249,2.50330066 61.9055811,3.28375675 61.9055811,4.11732346 C61.9055811,5.69443889 62.6410282,7.08521704 63.8310662,7.8989798 C63.1028206,7.8764753 62.5447089,7.67033407 61.7732547,7.33096619 L61.7732547,7.38767754 C61.7732547,9.59041808 63.3512703,11.4258852 65.3784757,11.8444689 C65.0076015,11.9479896 64.6385277,12.0047009 64.2343469,12.0047009 C63.9489898,12.0047009 63.6834367,11.9740948 63.4124825,11.9218844 C63.9768954,13.7276455 65.6206241,15.0410082 67.5623125,15.0779156 C66.0437087,16.2958592 64.1344269,17.0241048 62.0559112,17.0241048 C61.6976395,17.0241048 61.3465693,17.0007001 61,16.9583917 C62.9623925,18.2474495 65.2938588,19 67.7990598,19 C75.9582917,19 80.4195839,12.0767153 80.4195839,6.0725145 C80.4195839,5.87537508 80.4159832,5.67823565 80.4069814,5.48289658 C81.274755,4.84286857 82.0255051,4.0435087 82.6205241,3.13072615 C82.2366263,3.30530412 81.6341234,3.18843945 81.536499,2.8515625 C81.4388746,2.51468555 81.8518169,1.88280461 82.0228046,1.33396679 C81.1667333,1.85427085 80.2170434,2.23234647 79.2061412,2.43668734 Z" id="icon-twitter"></path>
                </g>
            </g>
        </g>
    </g>
</svg>