<?xml version="1.0" encoding="UTF-8" standalone="no"?>
<svg width="21px" height="28px" viewBox="0 0 21 28" version="1.1" xmlns="http://www.w3.org/2000/svg" xmlns:xlink="http://www.w3.org/1999/xlink">
    <!-- Generator: Sketch 40 (33762) - http://www.bohemiancoding.com/sketch -->
    <title>icon-principle</title>
    <desc>Created with Sketch.</desc>
    <defs></defs>
    <g id="iampanagiotis" stroke="none" stroke-width="1" fill="none" fill-rule="evenodd">
        <g id="desktop" transform="translate(-613.000000, -1327.000000)" fill="#7E848C">
            <g id="flow" transform="translate(5.000000, 529.000000)">
                <g id="proto" transform="translate(37.000000, 452.000000)">
                    <g id="description" transform="translate(568.000000, 55.000000)">
                        <g id="icons" transform="translate(3.000000, 291.000000)">
                            <g id="icon-principle">
                                <path d="M2.28704834,26.6898193 C2.69390869,26.8500366 2.688213,26.9342561 3.34256055,26.9342561 C4.60029481,26.9342561 5.61937716,25.9152483 5.61937716,24.6579643 L5.61937716,10.5121107 C5.61937716,7.80992859 7.80992859,5.61937716 10.5121107,5.61937716 C13.2142929,5.61937716 15.4048443,7.80992859 15.4048443,10.5121107 C15.4048443,13.1911702 13.2502596,15.3711764 10.5739261,15.4047604 C9.33042011,15.4048572 8.33217993,16.4029014 8.33217993,17.633218 C8.33217993,18.8641541 9.32971191,19.8615917 10.560589,19.8615917 L10.7542899,19.8615917 C10.8387507,19.8615917 10.9224277,19.8569339 11.0051274,19.8477081 C15.9918766,19.5362339 19.8615917,15.4332329 19.8615917,10.4636678 C19.8615917,5.27333778 15.6539979,1.06574394 10.4636678,1.06574394 C5.30227992,1.06574394 1.12044886,5.22371626 1.0656849,10.4259186 L1.0656849,23.2036743 C1.0656849,23.2036743 1.69067383,23.5423584 1.97253418,23.9040527 C2.25439453,24.2657471 2.51903114,24.8414786 2.51903114,25.6747405 C2.51903114,26.4033711 2.28704834,26.6898193 2.28704834,26.6898193 Z M0.859310225,26.894959 C1.22095197,26.6111701 1.4532872,26.1700877 1.4532872,25.6747405 C1.4532872,24.8511427 0.811004955,24.177558 0,24.1275459 L0,10.4147 C0.060958818,4.62402909 4.72231339,0 10.4636678,0 C16.242592,0 20.9273356,4.68474366 20.9273356,10.4636678 C20.9273356,16.0210439 16.5949071,20.566527 11.1232854,20.9068818 C11.0021428,20.9203961 10.8790224,20.9273356 10.7542899,20.9273356 L10.560589,20.9273356 C8.74127852,20.9273356 7.26643599,19.4529089 7.26643599,17.633218 C7.26643599,15.8139388 8.742192,14.3391195 10.5605536,14.3391003 C12.6518172,14.3128581 14.3391003,12.6095275 14.3391003,10.5121107 C14.3391003,8.39852272 12.6256987,6.68512111 10.5121107,6.68512111 C8.39852272,6.68512111 6.68512111,8.39852272 6.68512111,10.5121107 L6.68512111,24.6579643 C6.68512111,26.5037197 5.18901167,28 3.34256055,28 C2.35701258,28 1.47108659,27.5734309 0.859310225,26.894959 Z" id="Shape"></path>
                                <path d="M10.6500244,18.9000244 L10.6500244,18.9000244 C9.95966848,18.9000244 9.40002441,18.3403804 9.40002441,17.6500244 C9.40002441,16.9596685 9.95966848,16.4000244 10.6500244,16.4000244 C11.3403804,16.4000244 11.9000244,16.9596685 11.9000244,17.6500244 C11.9000244,18.3403804 11.3403804,18.9000244 10.6500244,18.9000244 L10.6500244,18.9000244 Z" id="Shape"></path>
                            </g>
                        </g>
                    </g>
                </g>
            </g>
        </g>
    </g>
</svg>