<?xml version="1.0" encoding="UTF-8" standalone="no"?>
<svg width="20px" height="20px" viewBox="0 0 20 20" version="1.1" xmlns="http://www.w3.org/2000/svg" xmlns:xlink="http://www.w3.org/1999/xlink">
    <!-- Generator: Sketch 41.1 (35376) - http://www.bohemiancoding.com/sketch -->
    <title>icon-dribbble</title>
    <desc>Created with Sketch.</desc>
    <defs></defs>
    <g id="iampanagiotis" stroke="none" stroke-width="1" fill="none" fill-rule="evenodd">
        <g id="desktop" transform="translate(-498.000000, -439.000000)" fill="#474A4F">
            <g id="header" transform="translate(358.000000, 64.000000)">
                <g id="social" transform="translate(140.000000, 375.000000)">
                    <path d="M10,20 C4.48596549,20 0,15.5140345 0,10 C0,4.48596549 4.48596549,0 10,0 C15.5140345,0 20,4.48596549 20,10 C20,15.5140345 15.5140085,20 10,20 L10,20 Z M18.4335203,11.3688662 C18.1412931,11.2766223 15.7896985,10.5752613 13.1129584,11.0037189 C14.2301983,14.0737326 14.6847769,16.5742925 14.772307,17.093744 C16.6886729,15.7980322 18.0527993,13.7455141 18.4335203,11.3688662 L18.4335203,11.3688662 Z M13.3364845,17.8757338 C13.2094473,17.1263497 12.7135126,14.5146127 11.5143418,11.3983728 C11.4955389,11.4047794 11.476788,11.4108734 11.457985,11.4174102 C6.64025918,13.0961868 4.91080311,16.4372288 4.75715007,16.7514623 C7.20047929,18.6566117 10.4847675,19.0869985 13.3364845,17.8757338 L13.3364845,17.8757338 Z M3.65428588,15.7241746 C3.84775849,15.3929611 6.19195691,11.5115552 10.5971634,10.0876343 C10.7084881,10.051643 10.8206808,10.0177873 10.9337417,9.98606706 C10.7193306,9.50086202 10.485804,9.01508404 10.2412613,8.53654598 C5.97569678,9.81311624 1.83651838,9.75978041 1.46280294,9.75209775 C1.46019866,9.83882057 1.45845378,9.92575173 1.45845378,10.0130996 C1.45680705,12.1232319 2.23940845,14.1586769 3.65428588,15.7241746 L3.65428588,15.7241746 Z M1.63887891,8.26361652 C2.02090202,8.2686428 5.54010344,8.28392998 9.53542093,7.2229167 C8.12014626,4.70717377 6.59377262,2.59186629 6.36860582,2.28304973 C3.97904068,3.41018589 2.19273299,5.61307561 1.63887891,8.26361652 L1.63887891,8.26361652 Z M7.99836972,1.70893427 C8.23447453,2.02504284 9.78579725,4.13764187 11.1854722,6.70916866 C14.222724,5.57075592 15.5085915,3.84254991 15.6622446,3.62373757 C13.5748005,1.76995205 10.7124147,1.05479088 7.99836972,1.70893427 L7.99836972,1.70893427 Z M16.6116901,4.61154429 C16.4316296,4.85522759 15.0003906,6.69000109 11.8421697,7.97938445 C12.040929,8.38625248 12.2314588,8.80004792 12.4088629,9.21657786 C12.4717304,9.36415422 12.5330614,9.51108819 12.5928559,9.65737977 C15.4349683,9.30001927 18.2589028,9.87275445 18.5405045,9.93231454 C18.5241578,7.99048073 17.8434764,6.11277319 16.6116901,4.61154429 L16.6116901,4.61154429 Z" id="icon-dribbble"></path>
                </g>
            </g>
        </g>
    </g>
</svg>