<?xml version="1.0" encoding="UTF-8" standalone="no"?>
<svg width="28px" height="28px" viewBox="0 0 28 28" version="1.1" xmlns="http://www.w3.org/2000/svg" xmlns:xlink="http://www.w3.org/1999/xlink">
    <!-- Generator: Sketch 39.1 (31720) - http://www.bohemiancoding.com/sketch -->
    <title>icon-invision</title>
    <desc>Created with Sketch.</desc>
    <defs></defs>
    <g id="iampanagiotis" stroke="none" stroke-width="1" fill="none" fill-rule="evenodd">
        <g id="desktop" transform="translate(-655.000000, -1327.000000)" fill="#7E848C">
            <g id="flow" transform="translate(42.000000, 527.000000)">
                <g id="proto" transform="translate(0.000000, 454.000000)">
                    <g id="description" transform="translate(568.000000, 55.000000)">
                        <g id="icons" transform="translate(3.000000, 291.000000)">
                            <g id="icon-invision" transform="translate(42.000000, 0.000000)">
                                <path d="M25.0032873,0 L2.99671273,0 C1.34170236,0 0,1.34170236 0,2.99671273 L0,25.0032873 C0,26.6582976 1.34170236,28 2.99671273,28 L25.0032873,28 C26.6582976,28 28,26.6582976 28,25.0032873 L28,2.99671273 C28,1.34170236 26.6582976,0 25.0032873,0 L25.0032873,1.12 C26.0397387,1.12 26.88,1.96026128 26.88,2.99671273 L26.88,25.0032873 C26.88,26.0397387 26.0397387,26.88 25.0032873,26.88 L2.99671273,26.88 C1.96026128,26.88 1.12,26.0397387 1.12,25.0032873 L1.12,2.99671273 C1.12,1.96026128 1.96026128,1.12 2.99671273,1.12 L25.0032873,1.12 L25.0032873,0 L25.0032873,0 Z" id="Shape"></path>
                                <path d="M10.8000245,7.69934557 C10.8000245,8.6505675 10.0445867,9.4000001 9.09994447,9.4000001 C8.15544619,9.4000001 7.40002441,8.65055151 7.40002441,7.69934557 C7.40002441,6.7491202 8.1554469,6 9.09994447,6 C10.0445859,6 10.8000245,6.74910423 10.8000245,7.69934557 L10.8000245,7.69934557 Z" id="Shape"></path>
                                <path d="M5.57819718,19.4527879 C5.57819718,20.9371061 6.38319718,21.9225152 8.09363658,21.9225152 C9.51230324,21.9225152 10.6623184,21.0799697 11.4903335,19.7197424 L10.9847426,21.749 L13.8017123,21.749 L15.4117123,15.2916061 C15.8141063,13.6565758 16.5938639,12.8079848 17.7762275,12.8079848 C18.7069093,12.8079848 19.2854699,13.3867576 19.2854699,14.3422576 C19.2854699,14.6191818 19.2602275,14.9207121 19.159682,15.247803 L18.3294396,18.2159091 C18.2036517,18.6435455 18.1535911,19.0715 18.1535911,19.4735758 C18.1535911,20.882697 18.9834093,21.9133939 20.7190911,21.9133939 C22.2031972,21.9133939 23.3853487,20.958 24.0394245,18.6688939 L22.9327881,18.2415758 C22.3792578,19.7752121 21.9013487,20.0524545 21.5240911,20.0524545 C21.1467275,20.0524545 20.9454245,19.8010909 20.9454245,19.2982576 C20.9454245,19.0719242 20.9959093,18.8206667 21.0712123,18.5181818 L21.8763184,15.6264394 C22.0774093,14.9474394 22.1530305,14.3453333 22.1530305,13.7921212 C22.1530305,11.6289091 20.844879,10.5 19.2602275,10.5 C17.7762275,10.5 16.266879,11.8385909 15.5124699,13.2473939 L16.065682,10.718697 L11.7645002,10.718697 L11.1606972,12.9459697 L13.1730911,12.9459697 L11.9339851,17.9072727 C10.9607729,20.0704848 9.17322749,20.1055909 8.94890931,20.0553182 C8.58056082,19.9722727 8.34510627,19.8323788 8.34510627,19.3537273 C8.34510627,19.0775455 8.39527294,18.6808788 8.52106082,18.2025455 L10.4077729,10.718697 L5.62868203,10.718697 L5.02498506,12.9459697 L7.01192446,12.9459697 L5.72912143,18.1866364 C5.62868203,18.6142727 5.57819718,19.0760606 5.57819718,19.4527879 L5.57819718,19.4527879 Z" id="Shape"></path>
                            </g>
                        </g>
                    </g>
                </g>
            </g>
        </g>
    </g>
</svg>