<?xml version="1.0" encoding="UTF-8" standalone="no"?>
<svg width="19px" height="16px" viewBox="0 0 19 16" version="1.1" xmlns="http://www.w3.org/2000/svg" xmlns:xlink="http://www.w3.org/1999/xlink">
    <!-- Generator: Sketch 39.1 (31720) - http://www.bohemiancoding.com/sketch -->
    <title>medium</title>
    <desc>Created with Sketch.</desc>
    <defs></defs>
    <g id="iampanagiotis" stroke="none" stroke-width="1" fill="none" fill-rule="evenodd">
        <g id="desktop" transform="translate(-585.000000, -2348.000000)" fill="#474A4F">
            <g id="case-study" transform="translate(0.000000, 1942.000000)">
                <g id="description" transform="translate(560.000000, 117.000000)">
                    <g id="CTA" transform="translate(0.000000, 274.000000)">
                        <g id="medium" transform="translate(25.000000, 15.000000)">
                            <path d="M18.8474607,2.93519101 C18.8438652,2.93231461 18.8409888,2.92853933 18.8364944,2.92638202 L18.8300225,2.92314607 L13.1545169,0.0853932584 C13.1162247,0.0661573034 13.0759551,0.0532134831 13.0351461,0.0427865169 C12.9839101,0.0296629213 12.9315955,0.0215730337 12.8791011,0.0215730337 C12.6617528,0.0215730337 12.4454831,0.130696629 12.3282697,0.320898876 L9.06085393,5.63074157 L13.1613483,12.2939326 L18.8648989,3.02579775 C18.8837753,2.9948764 18.8747865,2.95676404 18.8474607,2.93519101" id="Fill-53"></path>
                            <polyline id="Fill-54" points="7.2611236 4.42121348 7.2611236 10.4654382 12.6335281 13.1516404 7.2611236 4.42121348"></polyline>
                            <path d="M13.4407191,13.555236 L17.8630112,15.7662921 C18.4384719,16.0541124 18.9049888,15.8525843 18.9049888,15.3164944 L18.9049888,4.67577528 L13.4407191,13.555236" id="Fill-55"></path>
                            <path d="M6.32844944,2.94382022 L0.785438202,0.172224719 C0.685303371,0.122247191 0.590022472,0.0985168539 0.503730337,0.0985168539 C0.261033708,0.0985168539 0.0907865169,0.286382022 0.0907865169,0.60152809 L0.0907865169,12.5691685 C0.0907865169,12.8895281 0.325213483,13.2688539 0.611775281,13.4121348 L5.49393258,15.8531236 C5.61905618,15.9156854 5.73824719,15.9453483 5.84593258,15.9453483 C6.14939326,15.9453483 6.36224719,15.7105618 6.36224719,15.3164944 L6.36224719,2.99829213 C6.36224719,2.9752809 6.3491236,2.95406742 6.32844944,2.94382022" id="Fill-56"></path>
                        </g>
                    </g>
                </g>
            </g>
        </g>
    </g>
</svg>